<?xml version="1.0" standalone="no"?>
<!DOCTYPE svg PUBLIC "-//W3C//DTD SVG 20010904//EN"
 "http://www.w3.org/TR/2001/REC-SVG-20010904/DTD/svg10.dtd">
<svg version="1.0" xmlns="http://www.w3.org/2000/svg"
 width="700.000000pt" height="700.000000pt" viewBox="0 0 700.000000 700.000000"
 preserveAspectRatio="xMidYMid meet">
<metadata>
Created by potrace 1.14, written by Peter Selinger 2001-2017
</metadata>
<g transform="translate(0.000000,700.000000) scale(0.100000,-0.100000)"
fill="#000000" stroke="none">
<path d="M3175 5828 c-16 -4 -42 -10 -58 -13 -270 -50 -403 -105 -671 -274
-71 -44 -138 -81 -149 -81 -10 0 -60 18 -110 40 -112 50 -115 51 -272 54 -143
3 -215 -1 -215 -15 0 -11 45 -18 160 -23 81 -4 157 -21 190 -41 5 -3 7 -12 4
-20 -10 -24 -72 -36 -249 -50 -191 -14 -495 -137 -678 -274 -29 -21 -66 -46
-83 -54 -47 -24 -136 -127 -109 -127 2 0 39 16 82 36 77 36 162 50 170 28 6
-18 -65 -83 -102 -93 -39 -10 -82 -48 -240 -206 -127 -127 -185 -195 -185
-218 0 -9 -11 -24 -25 -33 -49 -32 -63 -157 -80 -724 -13 -439 -24 -582 -50
-675 -17 -59 -52 -223 -61 -280 -3 -22 -10 -60 -14 -85 -9 -43 -6 -263 4 -306
2 -12 7 -44 11 -71 3 -28 10 -63 14 -79 l8 -29 11 27 c15 36 32 45 48 23 16
-22 91 -252 103 -318 35 -193 -73 -569 -255 -883 -66 -114 -100 -194 -110
-261 -7 -49 -42 -248 -50 -290 -5 -28 -4 -33 12 -33 11 0 101 22 202 50 101
27 206 53 235 56 29 3 71 10 94 15 23 5 81 12 130 15 48 3 106 11 128 16 56
14 74 17 125 23 25 3 65 7 90 10 25 3 71 7 104 10 32 3 61 7 65 9 3 2 24 7 46
10 22 3 51 8 65 11 23 4 60 8 195 20 28 3 75 7 105 10 67 6 144 12 270 20 52
4 109 8 125 9 65 7 141 17 166 22 14 3 84 7 154 9 70 2 139 6 154 9 32 6 123
18 176 22 36 3 97 6 380 18 44 2 97 11 118 19 32 14 37 21 38 49 2 66 15 176
28 238 3 19 5 45 3 57 -4 29 -65 71 -163 114 -41 18 -86 43 -101 55 -14 11
-46 24 -70 28 -23 4 -86 23 -138 43 -52 19 -101 37 -110 38 -8 2 -55 15 -105
29 -49 14 -103 28 -120 31 -51 10 -185 35 -300 55 -60 11 -123 22 -140 25 -59
11 -125 37 -125 50 0 7 12 15 28 19 45 9 339 -2 466 -18 66 -9 140 -18 165
-22 25 -3 53 -7 61 -9 8 -2 31 -7 50 -10 19 -3 109 -24 200 -47 167 -42 306
-92 459 -167 47 -22 94 -41 106 -41 19 0 87 43 125 80 33 31 257 239 295 273
39 35 39 37 20 51 -11 7 -33 25 -49 39 l-29 25 94 69 c114 84 210 148 304 200
132 74 320 163 355 168 19 4 64 17 101 30 94 33 176 45 329 47 102 2 310 -9
340 -17 8 -2 38 -6 65 -10 122 -15 257 -54 414 -121 61 -26 113 -45 116 -43 2
3 -3 29 -11 59 -20 72 -42 162 -49 197 -2 15 -7 39 -10 53 -3 14 -7 43 -10 65
-5 39 -13 95 -20 145 -3 14 -7 48 -10 75 -4 28 -13 84 -21 125 -8 41 -17 93
-20 115 -2 22 -7 57 -9 77 -6 44 -92 332 -128 428 -104 279 -241 553 -435 867
-131 213 -344 452 -572 643 -36 30 -67 57 -70 61 -3 3 -43 35 -90 73 -47 37
-92 73 -100 79 -8 7 -55 42 -105 78 -191 140 -254 172 -524 271 -48 17 -197
49 -301 64 -19 3 -48 7 -65 9 -16 3 -55 7 -85 10 -134 14 -190 28 -190 51 0 7
12 16 28 20 15 3 36 9 47 12 57 17 210 38 300 42 56 2 35 8 -102 29 -123 20
-287 24 -338 9z m215 -532 c19 -2 82 -7 140 -10 58 -4 132 -13 165 -22 33 -8
116 -29 185 -45 157 -37 219 -59 345 -119 271 -131 506 -343 611 -553 29 -57
32 -68 19 -73 -19 -8 -81 16 -160 61 -168 95 -376 192 -475 220 -25 7 -64 20
-87 29 -76 28 -200 46 -289 41 -179 -11 -312 -83 -376 -205 -19 -38 -23 -60
-23 -140 0 -86 3 -101 33 -164 57 -121 200 -238 327 -266 26 -6 166 -13 309
-15 324 -5 394 -10 526 -41 166 -39 265 -80 309 -128 35 -37 41 -118 12 -171
-12 -22 -21 -52 -21 -67 0 -39 -42 -147 -97 -248 -165 -305 -411 -542 -773
-746 -291 -164 -564 -262 -915 -329 -76 -15 -239 -20 -595 -20 -389 1 -391 1
-615 41 -64 11 -123 29 -150 46 -16 10 -42 18 -56 18 -56 0 -319 143 -424 230
-60 49 -240 236 -254 262 -19 38 -3 74 68 144 62 62 202 170 241 187 14 6 51
28 83 49 32 20 119 70 194 110 198 105 321 227 359 356 22 75 27 268 9 330
-17 55 -98 137 -169 172 -58 28 -157 30 -259 6 -198 -47 -403 -228 -607 -536
-93 -142 -126 -180 -152 -180 -19 0 -23 14 -19 65 2 24 23 134 35 180 1 6 6
26 10 45 21 91 180 387 259 483 157 188 532 523 682 608 76 43 143 45 302 8
27 -6 57 -13 68 -15 52 -11 185 -5 240 11 101 29 303 137 375 199 20 17 54 45
75 62 22 18 64 52 94 75 89 73 80 71 251 64 85 -3 171 -7 190 -9z m484 -660
c19 -8 53 -33 75 -55 38 -38 41 -45 41 -93 0 -29 -6 -61 -14 -70 -13 -17 -97
-58 -120 -58 -7 0 -34 -14 -61 -31 -43 -27 -54 -30 -84 -23 -93 23 -113 222
-29 283 81 60 132 72 192 47z m-2110 -589 c100 -69 139 -175 86 -232 -20 -21
-29 -23 -83 -19 -40 3 -63 0 -68 -8 -10 -16 -120 -23 -161 -9 -43 14 -60 47
-53 102 19 149 173 241 279 166z"/>
<path d="M2755 4498 c-198 -23 -440 -161 -489 -279 -24 -57 -7 -103 81 -226
99 -138 154 -165 369 -177 32 -2 62 -4 66 -5 7 -1 2 -140 -7 -182 -5 -23 -15
-29 -88 -49 -45 -12 -90 -24 -101 -26 -47 -9 -17 -11 111 -9 199 4 248 14 387
81 60 29 162 113 138 114 -7 0 -54 -20 -104 -45 -51 -25 -100 -45 -110 -45
-40 0 -145 144 -136 187 3 17 15 25 66 43 40 15 153 127 187 185 33 55 35 65
41 210 6 142 -3 165 -82 204 -42 22 -64 25 -154 26 -58 0 -136 -3 -175 -7z"/>
<path d="M4951 2180 c-84 -16 -167 -31 -185 -34 -112 -18 -376 -123 -493 -197
-39 -24 -36 -39 4 -23 20 9 67 18 104 21 57 5 69 3 69 -9 0 -15 -63 -77 -136
-133 -220 -170 -545 -512 -636 -671 -44 -75 -51 -107 -50 -207 2 -105 18 -154
67 -202 71 -71 273 -159 410 -180 74 -11 100 -16 130 -25 70 -20 245 -36 530
-45 148 -5 1211 -6 1295 -1 169 10 227 18 258 37 18 10 47 21 63 24 17 3 36 7
42 8 23 4 111 56 151 87 82 66 141 159 161 255 3 14 7 35 10 48 20 95 24 138
22 257 -2 132 -3 137 -40 219 -21 46 -51 103 -68 127 -49 72 -298 314 -322
314 -5 0 -55 29 -111 64 -121 75 -160 96 -269 140 -84 34 -242 83 -294 92 -15
2 -39 7 -53 9 -58 12 -78 15 -154 25 -45 6 -92 14 -106 16 -14 3 -74 7 -135 9
-90 3 -138 -1 -264 -25z"/>
</g>
</svg>
